<svg xmlns="http://www.w3.org/2000/svg" width="192" height="38" fill="none"><g clip-path="url(#a)"><path fill="#CC4C6E" d="M22.738 37.748c-3.13.512-6.067-1.596-6.642-4.726L11.625 6.707C11.114 3.577 13.222.639 16.35.064c3.13-.511 6.068 1.597 6.643 4.726l4.471 26.316c.511 3.13-1.597 6.068-4.727 6.642ZM38.77 37.748c-3.13.512-6.067-1.596-6.642-4.726L27.657 6.707C27.082 3.577 29.19.639 32.319.064c3.13-.511 6.068 1.597 6.643 4.726l4.471 26.316c.575 3.13-1.533 6.068-4.663 6.642Z"/><path fill="#F3B541" d="M3.45 37.302c-2.875-1.277-4.216-4.663-2.938-7.6L12.072 3.45C13.35.575 16.735-.766 19.673.512c2.874 1.277 4.216 4.662 2.938 7.6L10.987 34.364a5.684 5.684 0 0 1-7.537 2.938Z"/><path fill="#4CB3AA" d="M19.417 37.301c-2.874-1.277-4.215-4.662-2.938-7.6l11.56-26.252C29.318.575 32.704-.766 35.642.511c2.874 1.277 4.215 4.663 2.938 7.6L27.018 34.364c-1.341 2.938-4.727 4.216-7.6 2.938Z"/><path fill="#842C68" d="M35.385 37.301c-2.874-1.277-4.215-4.662-2.938-7.6L44.072 3.449c1.277-2.874 4.662-4.215 7.6-2.938 2.875 1.277 4.216 4.663 2.939 7.6L42.986 34.364c-1.277 2.938-4.663 4.216-7.6 2.938Z"/><path fill="#fff" d="M64.766 11.816c0-.255.192-.383.384-.383h.255c.256 0 .383.064.447.32l4.727 10.155c.383.83.83 1.852.83 1.852h.064s.447-1.085.83-1.852l4.727-10.156a.48.48 0 0 1 .447-.319h.255c.256 0 .384.128.384.383l1.277 15.84c0 .256-.127.448-.383.448h-.192c-.255 0-.383-.128-.383-.383l-1.022-12.328c-.064-.83-.064-2.235-.064-2.235h-.064s-.447 1.405-.83 2.235l-4.28 9.198a.48.48 0 0 1-.447.32h-.383c-.255 0-.383-.065-.447-.32l-4.28-9.198c-.382-.766-.893-2.235-.893-2.235h-.064s0 1.469-.064 2.235L64.51 27.784c0 .256-.192.384-.383.384h-.256c-.255 0-.383-.128-.383-.447l1.277-15.905ZM87.824 11.816c.064-.255.256-.319.447-.319h.448c.191 0 .383.064.447.32l5.94 15.84c.064.255 0 .447-.32.447h-.255c-.192 0-.383-.064-.447-.32l-2.108-5.429H84.95l-2.044 5.43c-.064.255-.255.319-.447.319h-.255c-.32 0-.447-.192-.32-.447l5.94-15.84Zm3.833 9.581-2.555-6.77c-.256-.703-.639-1.98-.639-1.98H88.4s-.383 1.277-.639 1.98l-2.554 6.77h6.45ZM100.535 20.886l-5.365-8.942c-.192-.255-.064-.447.255-.447h.256c.191 0 .383.064.447.255l3.768 6.324c.447.83 1.022 1.852 1.022 1.852h.064s.511-1.086 1.022-1.852l3.768-6.324c.128-.191.256-.255.448-.255h.255c.319 0 .447.192.256.447l-5.366 8.942v6.835c0 .255-.127.383-.383.383h-.064c-.255 0-.383-.128-.383-.383v-6.835ZM109.988 11.88c0-.255.128-.383.383-.383h.256c.191 0 .383.064.511.255l9.325 12.839c.575.766 1.341 2.108 1.341 2.108h.064s-.127-1.278-.127-2.108V11.88c0-.256.127-.384.383-.384h.191c.256 0 .384.128.384.383v15.84c0 .256-.128.384-.384.384h-.255a.58.58 0 0 1-.511-.256l-9.325-12.838c-.575-.767-1.342-2.108-1.342-2.108h-.064s.128 1.278.128 2.108v12.647c0 .255-.128.383-.383.383h-.192c-.255 0-.383-.128-.383-.383V11.88ZM134.962 11.178c4.79 0 8.431 3.704 8.431 8.495 0 4.918-3.641 8.75-8.431 8.75-4.79 0-8.431-3.832-8.431-8.75 0-4.79 3.641-8.495 8.431-8.495Zm0 16.287c4.216 0 7.345-3.385 7.345-7.792 0-4.28-3.129-7.537-7.345-7.537-4.216 0-7.345 3.257-7.345 7.537 0 4.407 3.129 7.792 7.345 7.792ZM154.443 11.178c4.791 0 8.431 3.704 8.431 8.495 0 4.918-3.64 8.75-8.431 8.75-4.79 0-8.431-3.832-8.431-8.75 0-4.79 3.641-8.495 8.431-8.495Zm0 16.287c4.216 0 7.345-3.385 7.345-7.792 0-4.28-3.129-7.537-7.345-7.537-4.215 0-7.345 3.257-7.345 7.537 0 4.407 3.13 7.792 7.345 7.792ZM169.517 12.391h-5.812c-.256 0-.384-.127-.384-.383v-.128c0-.255.128-.383.384-.383h12.646c.256 0 .384.128.384.383v.128c0 .256-.128.383-.384.383h-5.812v15.33c0 .255-.128.383-.383.383h-.256c-.255 0-.383-.128-.383-.383V12.39ZM179.353 11.88c0-.255.128-.383.384-.383h.191c.256 0 .383.128.383.383v7.41h10.667v-7.41c0-.255.128-.383.383-.383h.192c.255 0 .383.128.383.383v15.84c0 .256-.128.384-.383.384h-.192c-.255 0-.383-.128-.383-.383v-7.474h-10.603v7.474c0 .255-.128.383-.383.383h-.192c-.255 0-.383-.128-.383-.383V11.88h-.064Z"/></g><defs><clipPath id="a"><path fill="#fff" d="M0 0h192v37.812H0z"/></clipPath></defs></svg>